<svg width="512" height="512" xmlns="http://www.w3.org/2000/svg">

 <g>
  <title>background</title>
  <rect fill="none" id="canvas_background" height="402" width="582" y="-1" x="-1"/>
 </g>
 <g>
  <title>Layer 1</title>
  <circle id="svg_3" r="256" fill="#aa56ff" cy="256" cx="256"/>
  <path id="svg_4" fill="#aaffaa" d="m256,469.33386c-117.63153,0 -213.33334,-95.70239 -213.33334,-213.33334c0,-117.63146 95.7018,-213.33331 213.33334,-213.33331c117.6362,0 213.33334,95.70186 213.33334,213.33331c0,117.63095 -95.69714,213.33334 -213.33334,213.33334z"/>
  <polygon id="svg_6" points="144.0010071,334.2127991 248.8650055,267.6122742 144.0010071,201.0112   " opacity="0.3"/>
  <rect id="svg_7" y="329.213348" x="269.441528" width="114.557861" opacity="0.3" height="10"/>
  <rect id="svg_8" y="282.404266" x="269.441528" width="114.557861" opacity="0.3" height="10"/>
  <rect id="svg_9" y="235.5952" x="269.441528" width="114.557861" opacity="0.3" height="10"/>
  <rect id="svg_10" y="188.786667" x="269.441528" width="114.557861" opacity="0.3" height="10"/>
  <polygon id="svg_12" points="136.0010071,326.2127991 240.8650055,259.6122742 136.0010071,193.0112   " fill="#000000"/>
  <rect id="svg_13" y="321.213348" x="261.441528" width="114.557861" height="10" fill="#000000"/>
  <rect id="svg_14" y="274.404266" x="261.441528" width="114.557861" height="10" fill="#000000"/>
  <rect id="svg_15" y="227.5952" x="261.441528" width="114.557861" height="10" fill="#000000"/>
  <rect id="svg_16" y="180.786667" x="261.441528" width="114.557861" height="10" fill="#000000"/>
 </g>
</svg>